# xmcd
#
# Track frame offsets: 
#        150
#        15160
#        33795
#        51782
#        70869
#        88958
#        109791
#        131331
#        148378
#        166714
#        195317
#        219940
#
# Disc length: 3203 seconds
#
# Revision: 0
# Processed by: cddbd v1.5.2PL0 Copyright (c) Steve Scherf et al.
# Submitted via: ExactAudioCopy v1.3
#
DISCID=980c810c
DTITLE=Eliza Gilkyson - Secularia
DYEAR=2018
DGENRE=Folk
TTITLE0=Solitary Singer
TTITLE1=Lifelines
TTITLE2=Conservation
TTITLE3=In the Name of the Lord 
TTITLE4=Dreamtime
TTITLE5=Seculare
TTITLE6=Reunion
TTITLE7=Sanctuary
TTITLE8=Through the Looking Glass
TTITLE9=Emmanuelle
TTITLE10=Down by the Riverside
TTITLE11=Instrument
EXTD=
EXTT0=
EXTT1=
EXTT2=
EXTT3=
EXTT4=
EXTT5=
EXTT6=
EXTT7=
EXTT8=
EXTT9=
EXTT10=
EXTT11=
PLAYORDER=
